<?xml version="1.0" encoding="UTF-8"?>
<!DOCTYPE svg>
<svg xmlns="http://www.w3.org/2000/svg" version="1.1" width="24" height="24" viewBox="0 0 24 24"><path fill="#ffffff" d="M8,15,5,18a1.87,1.87,0,0,1-1.25.5A1.75,1.75,0,0,1,2,16.75V16.5L3,9.12A4.52,4.52,0,0,1,7.5,5h9A4.52,4.52,0,0,1,21,9.12l1,7.38v.25a1.75,1.75,0,0,1-1.75,1.75A1.87,1.87,0,0,1,19,18l-3-3H8M7,7V9H5v1H7v2H8V10h2V9H8V7H7m9.5,0a.75.75,0,1,0,.75.75A.75.75,0,0,0,16.5,7M14.75,8.75a.75.75,0,1,0,.75.75.75.75,0,0,0-.75-.75m3.5,0A.75.75,0,1,0,19,9.5a.75.75,0,0,0-.75-.75M16.5,10.5a.75.75,0,1,0,.75.75A.75.75,0,0,0,16.5,10.5z"/></svg>