<?xml version="1.0" encoding="UTF-8"?>
<!DOCTYPE svg>
<svg xmlns="http://www.w3.org/2000/svg" version="1.1" width="24" height="24" viewBox="0 0 24 24"><path fill="#00bcd5" d="M12,0A9,9,0,0,0,3,9V24l2.25-2.25L7.5,24l2.25-2.25L12,24l2.25-2.25L16.5,24l2.25-2.25L21,24V9A9,9,0,0,0,12,0z"/><path fill="#e6e6e6" d="M19,8.33a2.13,2.13,0,0,0-1.72-.83,2.25,2.25,0,0,0,0,4.5A2.13,2.13,0,0,0,19,11.17a1.53,1.53,0,0,1,0-2.85z"/><path fill="#e6e6e6" d="M13,8.33a2.13,2.13,0,0,0-1.73-.83,2.25,2.25,0,0,0,0,4.5A2.13,2.13,0,0,0,13,11.17a1.53,1.53,0,0,1,0-2.85z"/><path fill="#25374b" d="M19.5,9.75A2.37,2.37,0,0,0,19,8.33a1.53,1.53,0,0,0,0,2.85A2.37,2.37,0,0,0,19.5,9.75z"/><path fill="#25374b" d="M13.5,9.75A2.37,2.37,0,0,0,13,8.33a1.53,1.53,0,0,0,0,2.85A2.37,2.37,0,0,0,13.5,9.75z"/></svg>