<?xml version="1.0" encoding="UTF-8"?>
<!DOCTYPE svg>
<svg xmlns="http://www.w3.org/2000/svg" version="1.1" width="24" height="24" viewBox="0 0 24 24"><path fill="#ffffff" d="M13.9,17.6a4.33,4.33,0,0,1-2.6-1.1l-1.1,3.9-.2.3v-.1a1.08,1.08,0,0,1-1.1.6,1.42,1.42,0,0,1-1.3-1.4v-.2h0v-.2l2.2-6.6A7.19,7.19,0,0,1,9.6,11c0-2,1-2.7,2-2.7A1.57,1.57,0,0,1,13.3,10c0,1.6-1,2.4-1,3.5A1.75,1.75,0,0,0,14,15.2c2.8,0,3.9-2.1,3.9-4.1a4.92,4.92,0,0,0-5.1-4.7,4.83,4.83,0,0,0-5,4.7,6.44,6.44,0,0,0,.5,2.4,1.42,1.42,0,0,1,.2.6,1.48,1.48,0,0,1-1.1,1.3,1.17,1.17,0,0,1-1-.6A8.81,8.81,0,0,1,5.5,11a7.14,7.14,0,0,1,7.4-7.1A7,7,0,0,1,20,11.1C20,14.2,18.1,17.6,13.9,17.6z"/></svg>