<?xml version="1.0" encoding="UTF-8"?>
<!DOCTYPE svg>
<svg xmlns="http://www.w3.org/2000/svg" version="1.1" width="24" height="24" viewBox="0 0 24 24"><path fill="#ffffff" d="M21.7,7.3a7.94,7.94,0,0,1-2.2.6,3.92,3.92,0,0,0,1.7-2.1,9.89,9.89,0,0,1-2.4.9A3.72,3.72,0,0,0,16,5.4a3.86,3.86,0,0,0-3.8,3.8c0,.3.1.6.1.8A10.35,10.35,0,0,1,4.7,6.1a5.34,5.34,0,0,0-.5,2,3.66,3.66,0,0,0,1.7,3.1,5.26,5.26,0,0,1-1.7-.4h0a3.8,3.8,0,0,0,2.9,3.7c-.2,0-.5.1-.9.1a1.7,1.7,0,0,1-.7-.1,3.63,3.63,0,0,0,3.4,2.6,7.55,7.55,0,0,1-4.6,1.6H3.4a11.49,11.49,0,0,0,5.7,1.7A10.45,10.45,0,0,0,19.7,9.8V9.3A6.36,6.36,0,0,0,21.7,7.3z"/></svg>